<?xml version="1.0" ?><svg data-name="Layer 1" id="Layer_1" viewBox="0 0 512 512" xmlns="http://www.w3.org/2000/svg"><defs><style>.cls-1{fill:#e54033;}.cls-2{fill:#fff;}.cls-3{fill:#c9c9c9;}</style></defs><g data-name="Poetry Icon" id="Poetry_Icon"><circle class="cls-1" cx="256" cy="256" r="256"/><path class="cls-2" d="M418.87,267.54c-1.47,6.44-2.58,10.64-2.61,10.83q-5,.63-9.83,1.08c-83.82,8-113.91-20.18-123.31-31a89.64,89.64,0,0,1-5.6-7.18,305.92,305.92,0,0,1,40-15c16.67-5.06,29.16-7.64,29.16-7.64-1.85-.27-37.66-11.57-77.6-6.47-2.31.3-4.88.68-7.63,1.15h0c-6.05-12.33-11.92-26-17.64-39.82-1.57-3.93-3.81-9.46-6.57-16.06-7.28-17.38-13.94-32.77-17.48-39.54C201.36,82.62,179.4,50.1,179.4,50.1l.94.22c46.87,11.17,109.9,32.84,160.47,61.88L357,122c8,5.16,15.56,10.51,22.53,16l10,8.46c21.49,19.32,35.57,40.67,37,63.44C427.52,226.7,422.23,252.9,418.87,267.54Z"/><path class="cls-3" d="M420.39,277.41C377.29,139.8,248.33,90.28,225.16,85.5c-1.69-.35-6.24-1.25-7,.28-3.1,5.93,57.46,33.31,107,80.83,18.87,18.13,64.68,62.12,81.7,128.75,15.8,61.85,1.62,123,8.05,123.79,2.75.33,6.21-10.85,7.42-14.86C440.89,342.87,420.39,277.41,420.39,277.41Z"/><path class="cls-3" d="M280.39,325.24c-.09,2.57-.28,6.52-.68,11.33-3.09,36.75-13.32,58.58-17.13,66.08-6.66,13.12-12.14,19.12-19.42,21.8a31.58,31.58,0,0,1-10.84,1.92H126.48a31.52,31.52,0,0,1-10.83-1.92c-7.29-2.68-12.77-8.68-19.42-21.8-3.81-7.5-14-29.33-17.13-66.08-.4-4.81-.59-8.76-.69-11.33Z"/><path class="cls-3" d="M280.39,325.24h-202c0-23.85,22.6-44.51,55.56-54.57a161.77,161.77,0,0,1,90.86,0C257.79,280.73,280.39,301.39,280.39,325.24Z"/><path class="cls-2" d="M262.54,328.78c-.08,2.12-.23,5.37-.56,9.32-2.54,30.26-11,48.24-14.1,54.41-5.48,10.8-10,15.74-16,17.95A26,26,0,0,1,223,412H135.84a26,26,0,0,1-8.92-1.58c-6-2.21-10.51-7.15-16-17.95-3.14-6.17-11.56-24.15-14.1-54.41-.34-4-.49-7.2-.57-9.32Z"/><path class="cls-2" d="M262.54,328.78H96.26a32.23,32.23,0,0,1,3.48-14.43H259.06A32.23,32.23,0,0,1,262.54,328.78Z"/><path class="cls-3" d="M224.9,252.52v16.93a9.76,9.76,0,0,1-.07,1.22,10.56,10.56,0,0,1-10.5,9.35H144.47a10.57,10.57,0,0,1-10.5-9.35,12.12,12.12,0,0,1-.07-1.22V252.52a10.58,10.58,0,0,1,10.57-10.58h69.86A10.58,10.58,0,0,1,224.9,252.52Z"/></g></svg>